<svg width="512" height="512" version="1.1" xmlns="http://www.w3.org/2000/svg" desc="Created with imagetracer.js version 1.2.6" ><path fill="rgb(54,51,58)" stroke="rgb(54,51,58)" stroke-width="1" opacity="0.996078431372549" d="M 238.5 64 L 241 64.5 L 238.5 65 L 238.5 64 Z " /><path fill="rgb(54,51,58)" stroke="rgb(54,51,58)" stroke-width="1" opacity="0.996078431372549" d="M 271.5 64 L 274 64.5 L 271.5 65 L 271.5 64 Z " /><path fill="rgb(54,51,58)" stroke="rgb(54,51,58)" stroke-width="1" opacity="0.996078431372549" d="M 203.5 76 L 202.5 78 L 203.5 76 Z " /><path fill="rgb(54,51,58)" stroke="rgb(54,51,58)" stroke-width="1" opacity="0.996078431372549" d="M 308.5 76 L 309.5 78 L 308.5 76 Z " /><path fill="rgb(54,51,58)" stroke="rgb(54,51,58)" stroke-width="1" opacity="0.996078431372549" d="M 193.5 84 L 191.5 87 L 193.5 84 Z " /><path fill="rgb(54,51,58)" stroke="rgb(54,51,58)" stroke-width="1" opacity="0.996078431372549" d="M 318.5 84 L 320.5 87 L 318.5 84 Z " /><path fill="rgb(54,51,58)" stroke="rgb(54,51,58)" stroke-width="1" opacity="0.996078431372549" d="M 187.5 91 L 186.5 93 L 187.5 91 Z " /><path fill="rgb(54,51,58)" stroke="rgb(54,51,58)" stroke-width="1" opacity="0.996078431372549" d="M 324.5 91 L 325.5 93 L 324.5 91 Z " /><path fill="rgb(54,51,58)" stroke="rgb(54,51,58)" stroke-width="1" opacity="0.996078431372549" d="M 181.5 100 L 180.5 102 L 181.5 100 Z " /><path fill="rgb(54,51,58)" stroke="rgb(54,51,58)" stroke-width="1" opacity="0.996078431372549" d="M 330.5 100 L 331.5 102 L 330.5 100 Z " /><path fill="rgb(54,51,58)" stroke="rgb(54,51,58)" stroke-width="1" opacity="0.996078431372549" d="M 166.5 150 L 167 153.5 L 166 153.5 L 166.5 150 Z " /><path fill="rgb(54,51,58)" stroke="rgb(54,51,58)" stroke-width="1" opacity="0.996078431372549" d="M 345.5 150 L 346 153.5 L 345 153.5 L 345.5 150 Z " /><path fill="rgb(54,51,58)" stroke="rgb(54,51,58)" stroke-width="1" opacity="0.996078431372549" d="M 165.5 161 L 166 168.5 L 165 168.5 L 165.5 161 Z " /><path fill="rgb(54,51,58)" stroke="rgb(54,51,58)" stroke-width="1" opacity="0.996078431372549" d="M 346.5 161 L 347 168.5 L 346 168.5 L 346.5 161 Z " /><path fill="rgb(54,51,58)" stroke="rgb(54,51,58)" stroke-width="1" opacity="0.996078431372549" d="M 339.5 184 L 337.5 187 L 339.5 184 Z " /><path fill="rgb(54,51,58)" stroke="rgb(54,51,58)" stroke-width="1" opacity="0.996078431372549" d="M 144.5 270 L 145 282.5 L 144 282.5 L 144.5 270 Z " /><path fill="rgb(54,51,58)" stroke="rgb(54,51,58)" stroke-width="1" opacity="0.996078431372549" d="M 145.5 289 L 146 291.5 L 145 291.5 L 145.5 289 Z " /><path fill="rgb(54,51,58)" stroke="rgb(54,51,58)" stroke-width="1" opacity="0.996078431372549" d="M 208.5 289 L 209.5 291 L 208.5 289 Z " /><path fill="rgb(54,51,58)" stroke="rgb(54,51,58)" stroke-width="1" opacity="0.996078431372549" d="M 215.5 302 L 216 304.5 L 215 304.5 L 215.5 302 Z " /><path fill="rgb(54,51,58)" stroke="rgb(54,51,58)" stroke-width="1" opacity="0.996078431372549" d="M 214.5 309 L 215 314.5 L 214 314.5 L 214.5 309 Z " /><path fill="rgb(54,51,58)" stroke="rgb(54,51,58)" stroke-width="1" opacity="0.996078431372549" d="M 214.5 321 L 215 329.5 L 214 329.5 L 214.5 321 Z " /><path fill="rgb(54,51,58)" stroke="rgb(54,51,58)" stroke-width="1" opacity="0.996078431372549" d="M 295 346 L 297.5 347 L 318.5 349 L 338 353 L 364 487.5 L 345.5 496 L 311.5 506 L 288.5 510 L 280.5 510 L 279.5 511 L 249.5 512 L 248.5 511 L 223.5 510 L 200.5 506 L 169.5 497 L 147 488 L 172 365.5 Q 174.6 362.6 174 356.5 L 175.5 355 L 189 379.5 Q 194.1 390.9 194 407.5 L 192 417.5 L 188 426.5 L 179.5 436 L 177 437.5 L 180.5 438 L 203.5 428 L 217 416.5 Q 225.9 408 227 393 Q 230.3 391.7 229 396.5 L 255 500.5 L 256.5 502 L 295 346 Z " /><path fill="rgb(54,51,58)" stroke="rgb(54,51,58)" stroke-width="1" opacity="0.996078431372549" d="M 227.5 381 L 228 385.5 L 227 385.5 L 227.5 381 Z " /><path fill="rgb(56,114,127)" stroke="rgb(56,114,127)" stroke-width="1" opacity="0.5411764705882353" d="M 234.5 0 L 247 0.5 L 234.5 1 L 234.5 0 Z " /><path fill="rgb(56,114,127)" stroke="rgb(56,114,127)" stroke-width="1" opacity="0.5411764705882353" d="M 265.5 0 L 278 0.5 L 265.5 1 L 265.5 0 Z " /><path fill="rgb(56,114,127)" stroke="rgb(56,114,127)" stroke-width="1" opacity="0.5411764705882353" d="M 224.5 1 L 231 1.5 L 224.5 2 L 224.5 1 Z " /><path fill="rgb(56,114,127)" stroke="rgb(56,114,127)" stroke-width="1" opacity="0.5411764705882353" d="M 281.5 1 L 288 1.5 L 281.5 2 L 281.5 1 Z " /><path fill="rgb(56,114,127)" stroke="rgb(56,114,127)" stroke-width="1" opacity="0.5411764705882353" d="M 216.5 2 L 223 2.5 L 216.5 3 L 216.5 2 Z " /><path fill="rgb(56,114,127)" stroke="rgb(56,114,127)" stroke-width="1" opacity="0.5411764705882353" d="M 290.5 2 L 296 2.5 L 290.5 3 L 290.5 2 Z " /><path fill="rgb(56,114,127)" stroke="rgb(56,114,127)" stroke-width="1" opacity="0.5411764705882353" d="M 211.5 3 L 215 3.5 L 211.5 4 L 211.5 3 Z " /><path fill="rgb(56,114,127)" stroke="rgb(56,114,127)" stroke-width="1" opacity="0.5411764705882353" d="M 297.5 3 L 301 3.5 L 297.5 4 L 297.5 3 Z " /><path fill="rgb(56,114,127)" stroke="rgb(56,114,127)" stroke-width="1" opacity="0.5411764705882353" d="M 205.5 4 L 210 4.5 L 205.5 5 L 205.5 4 Z " /><path fill="rgb(56,114,127)" stroke="rgb(56,114,127)" stroke-width="1" opacity="0.5411764705882353" d="M 302.5 4 L 307 4.5 L 302.5 5 L 302.5 4 Z " /><path fill="rgb(56,114,127)" stroke="rgb(56,114,127)" stroke-width="1" opacity="0.5411764705882353" d="M 201.5 5 L 204 5.5 L 201.5 6 L 201.5 5 Z " /><path fill="rgb(56,114,127)" stroke="rgb(56,114,127)" stroke-width="1" opacity="0.5411764705882353" d="M 308.5 5 L 311 5.5 L 308.5 6 L 308.5 5 Z " /><path fill="rgb(56,114,127)" stroke="rgb(56,114,127)" stroke-width="1" opacity="0.5411764705882353" d="M 196.5 6 L 200 6.5 L 192.5 8 L 192.5 7 L 196.5 6 Z " /><path fill="rgb(56,114,127)" stroke="rgb(56,114,127)" stroke-width="1" opacity="0.5411764705882353" d="M 312.5 6 L 320 7.5 L 316.5 8 L 312.5 7 L 312.5 6 Z " /><path fill="rgb(56,114,127)" stroke="rgb(56,114,127)" stroke-width="1" opacity="0.5411764705882353" d="M 188.5 8 L 191 8.5 L 185.5 10 L 185.5 9 L 188.5 8 Z " /><path fill="rgb(56,114,127)" stroke="rgb(56,114,127)" stroke-width="1" opacity="0.5411764705882353" d="M 321.5 8 L 327 9.5 L 324.5 10 L 321.5 9 L 321.5 8 Z " /><path fill="rgb(56,114,127)" stroke="rgb(56,114,127)" stroke-width="1" opacity="0.5411764705882353" d="M 181.5 10 L 184 10.5 Q 165.8 15.3 150.5 23 L 150.5 22 L 181.5 10 Z " /><path fill="rgb(56,114,127)" stroke="rgb(56,114,127)" stroke-width="1" opacity="0.5411764705882353" d="M 328.5 10 Q 347.2 14.3 362 22.5 L 360.5 23 Q 346.5 15 328.5 11 L 328.5 10 Z " /><path fill="rgb(56,114,127)" stroke="rgb(56,114,127)" stroke-width="1" opacity="0.5411764705882353" d="M 147.5 23 L 149 23.5 L 127.5 35 L 128.5 33 L 147.5 23 Z " /><path fill="rgb(56,114,127)" stroke="rgb(56,114,127)" stroke-width="1" opacity="0.5411764705882353" d="M 363.5 23 L 385 34.5 L 383.5 34 L 363.5 24 L 363.5 23 Z " /><path fill="rgb(56,114,127)" stroke="rgb(56,114,127)" stroke-width="1" opacity="0.5411764705882353" d="M 125.5 35 L 124.5 37 Q 90 56.5 65 85.5 Q 48.4 103.9 35.5 126 L 36 124.5 Q 56.3 88.8 86.5 63 Q 104.1 47.1 125.5 35 Z " /><path fill="rgb(56,114,127)" stroke="rgb(56,114,127)" stroke-width="1" opacity="0.5411764705882353" d="M 386.5 35 Q 422.6 55.9 449 86.5 Q 464.9 104.1 477 125.5 L 475 124.5 Q 455.5 90 426.5 65 Q 409.1 48.9 387.5 37 L 386.5 35 Z " /><path fill="rgb(56,114,127)" stroke="rgb(56,114,127)" stroke-width="1" opacity="0.5411764705882353" d="M 34.5 127 L 34 128.5 L 23.5 149 L 23 147.5 L 34.5 127 Z " /><path fill="rgb(56,114,127)" stroke="rgb(56,114,127)" stroke-width="1" opacity="0.5411764705882353" d="M 477.5 127 L 489 148.5 L 488 148.5 L 477.5 127 Z " /><path fill="rgb(56,114,127)" stroke="rgb(56,114,127)" stroke-width="1" opacity="0.5411764705882353" d="M 22.5 150 L 23 151.5 Q 15 166 10.5 184 L 10 181.5 L 22.5 150 Z " /><path fill="rgb(56,114,127)" stroke="rgb(56,114,127)" stroke-width="1" opacity="0.5411764705882353" d="M 489.5 150 Q 497.7 164.8 502 183.5 L 501 183.5 L 496 166.5 L 489 151.5 L 489.5 150 Z " /><path fill="rgb(56,114,127)" stroke="rgb(56,114,127)" stroke-width="1" opacity="0.5411764705882353" d="M 9.5 185 L 10 187.5 L 8.5 191 L 8 188.5 L 9.5 185 Z " /><path fill="rgb(56,114,127)" stroke="rgb(56,114,127)" stroke-width="1" opacity="0.5411764705882353" d="M 502.5 185 L 504 190.5 L 503 190.5 L 502.5 185 Z " /><path fill="rgb(56,114,127)" stroke="rgb(56,114,127)" stroke-width="1" opacity="0.5411764705882353" d="M 7.5 192 L 8 195.5 L 6.5 200 L 6 196.5 L 7.5 192 Z " /><path fill="rgb(56,114,127)" stroke="rgb(56,114,127)" stroke-width="1" opacity="0.5411764705882353" d="M 504.5 192 L 506 199.5 L 505 199.5 L 504.5 192 Z " /><path fill="rgb(56,114,127)" stroke="rgb(56,114,127)" stroke-width="1" opacity="0.5411764705882353" d="M 5.5 201 L 6 203.5 L 5 203.5 L 5.5 201 Z " /><path fill="rgb(56,114,127)" stroke="rgb(56,114,127)" stroke-width="1" opacity="0.5411764705882353" d="M 506.5 201 L 507 203.5 L 506 203.5 L 506.5 201 Z " /><path fill="rgb(56,114,127)" stroke="rgb(56,114,127)" stroke-width="1" opacity="0.5411764705882353" d="M 4.5 205 L 5 209.5 L 4 209.5 L 4.5 205 Z " /><path fill="rgb(56,114,127)" stroke="rgb(56,114,127)" stroke-width="1" opacity="0.5411764705882353" d="M 507.5 205 L 508 209.5 L 507 209.5 L 507.5 205 Z " /><path fill="rgb(56,114,127)" stroke="rgb(56,114,127)" stroke-width="1" opacity="0.5411764705882353" d="M 3.5 211 L 4 214.5 L 3 214.5 L 3.5 211 Z " /><path fill="rgb(56,114,127)" stroke="rgb(56,114,127)" stroke-width="1" opacity="0.5411764705882353" d="M 508.5 211 L 509 214.5 L 508 214.5 L 508.5 211 Z " /><path fill="rgb(56,114,127)" stroke="rgb(56,114,127)" stroke-width="1" opacity="0.5411764705882353" d="M 2.5 216 L 3 222.5 L 2 222.5 L 2.5 216 Z " /><path fill="rgb(56,114,127)" stroke="rgb(56,114,127)" stroke-width="1" opacity="0.5411764705882353" d="M 509.5 216 L 510 222.5 L 509 222.5 L 509.5 216 Z " /><path fill="rgb(56,114,127)" stroke="rgb(56,114,127)" stroke-width="1" opacity="0.5411764705882353" d="M 1.5 224 L 2 230.5 L 1 230.5 L 1.5 224 Z " /><path fill="rgb(56,114,127)" stroke="rgb(56,114,127)" stroke-width="1" opacity="0.5411764705882353" d="M 510.5 224 L 511 230.5 L 510 230.5 L 510.5 224 Z " /><path fill="rgb(56,114,127)" stroke="rgb(56,114,127)" stroke-width="1" opacity="0.5411764705882353" d="M 0.5 234 L 1 246.5 L 0 246.5 L 0.5 234 Z " /><path fill="rgb(56,114,127)" stroke="rgb(56,114,127)" stroke-width="1" opacity="0.5411764705882353" d="M 511.5 234 L 512 246.5 L 511 246.5 L 511.5 234 Z " /><path fill="rgb(56,114,127)" stroke="rgb(56,114,127)" stroke-width="1" opacity="0.5411764705882353" d="M 0.5 265 L 1 277.5 L 0 277.5 L 0.5 265 Z " /><path fill="rgb(56,114,127)" stroke="rgb(56,114,127)" stroke-width="1" opacity="0.5411764705882353" d="M 511.5 265 L 512 277.5 L 511 277.5 L 511.5 265 Z " /><path fill="rgb(56,114,127)" stroke="rgb(56,114,127)" stroke-width="1" opacity="0.5411764705882353" d="M 1.5 281 L 2 287.5 L 1 287.5 L 1.5 281 Z " /><path fill="rgb(56,114,127)" stroke="rgb(56,114,127)" stroke-width="1" opacity="0.5411764705882353" d="M 510.5 281 L 511 287.5 L 510 287.5 L 510.5 281 Z " /><path fill="rgb(56,114,127)" stroke="rgb(56,114,127)" stroke-width="1" opacity="0.5411764705882353" d="M 2.5 290 L 3 295.5 L 2 295.5 L 2.5 290 Z " /><path fill="rgb(56,114,127)" stroke="rgb(56,114,127)" stroke-width="1" opacity="0.5411764705882353" d="M 509.5 290 L 510 295.5 L 509 295.5 L 509.5 290 Z " /><path fill="rgb(56,114,127)" stroke="rgb(56,114,127)" stroke-width="1" opacity="0.5411764705882353" d="M 3.5 297 L 4 300.5 L 3 300.5 L 3.5 297 Z " /><path fill="rgb(56,114,127)" stroke="rgb(56,114,127)" stroke-width="1" opacity="0.5411764705882353" d="M 508.5 297 L 509 300.5 L 508 300.5 L 508.5 297 Z " /><path fill="rgb(56,114,127)" stroke="rgb(56,114,127)" stroke-width="1" opacity="0.5411764705882353" d="M 4.5 302 L 5 306.5 L 4 306.5 L 4.5 302 Z " /><path fill="rgb(56,114,127)" stroke="rgb(56,114,127)" stroke-width="1" opacity="0.5411764705882353" d="M 507.5 302 L 508 306.5 L 507 306.5 L 507.5 302 Z " /><path fill="rgb(56,114,127)" stroke="rgb(56,114,127)" stroke-width="1" opacity="0.5411764705882353" d="M 5.5 308 L 6 310.5 L 5 310.5 L 5.5 308 Z " /><path fill="rgb(56,114,127)" stroke="rgb(56,114,127)" stroke-width="1" opacity="0.5411764705882353" d="M 506.5 308 L 507 310.5 L 506 310.5 L 506.5 308 Z " /><path fill="rgb(56,114,127)" stroke="rgb(56,114,127)" stroke-width="1" opacity="0.5411764705882353" d="M 6.5 312 L 8 319.5 L 7 319.5 L 6.5 312 Z " /><path fill="rgb(56,114,127)" stroke="rgb(56,114,127)" stroke-width="1" opacity="0.5411764705882353" d="M 505.5 312 L 506 315.5 L 504.5 320 L 504 316.5 L 505.5 312 Z " /><path fill="rgb(56,114,127)" stroke="rgb(56,114,127)" stroke-width="1" opacity="0.5411764705882353" d="M 8.5 321 L 10 326.5 L 9 326.5 L 8.5 321 Z " /><path fill="rgb(56,114,127)" stroke="rgb(56,114,127)" stroke-width="1" opacity="0.5411764705882353" d="M 503.5 321 L 504 323.5 L 502.5 327 L 502 324.5 L 503.5 321 Z " /><path fill="rgb(56,114,127)" stroke="rgb(56,114,127)" stroke-width="1" opacity="0.5411764705882353" d="M 10.5 328 Q 15.3 346.3 23 361.5 L 22 361.5 Q 13.8 346.3 10.5 328 Z " /><path fill="rgb(56,114,127)" stroke="rgb(56,114,127)" stroke-width="1" opacity="0.5411764705882353" d="M 501.5 328 L 502 330.5 L 489.5 362 L 489 360.5 Q 497 346 501.5 328 Z " /><path fill="rgb(56,114,127)" stroke="rgb(56,114,127)" stroke-width="1" opacity="0.5411764705882353" d="M 23.5 363 L 35 384.5 L 33 383.5 L 23 364.5 L 23.5 363 Z " /><path fill="rgb(56,114,127)" stroke="rgb(56,114,127)" stroke-width="1" opacity="0.5411764705882353" d="M 488.5 363 L 489 364.5 L 477.5 385 L 478 383.5 L 488.5 363 Z " /><path fill="rgb(56,114,127)" stroke="rgb(56,114,127)" stroke-width="1" opacity="0.5411764705882353" d="M 35.5 386 Q 56 421 85.5 447 L 94 454.5 L 87.5 449 L 63 425.5 Q 46.4 407.6 35.5 386 Z " /><path fill="rgb(56,114,127)" stroke="rgb(56,114,127)" stroke-width="1" opacity="0.5411764705882353" d="M 476.5 386 L 476 387.5 Q 455.7 423.2 425.5 449 L 418.5 455 L 425.5 447 L 447 426.5 Q 463.6 408.1 476.5 386 Z " /><path fill="rgb(56,114,127)" stroke="rgb(56,114,127)" stroke-width="1" opacity="0.5411764705882353" d="M 96.5 456 L 98.5 459 L 96.5 456 Z " /><path fill="rgb(56,114,127)" stroke="rgb(56,114,127)" stroke-width="1" opacity="0.5411764705882353" d="M 415.5 456 L 413.5 459 L 415.5 456 Z " /><path fill="rgb(56,114,127)" stroke="rgb(56,114,127)" stroke-width="1" opacity="0.5411764705882353" d="M 100.5 459 L 102.5 462 L 100.5 459 Z " /><path fill="rgb(56,114,127)" stroke="rgb(56,114,127)" stroke-width="1" opacity="0.5411764705882353" d="M 411.5 459 L 409.5 462 L 411.5 459 Z " /><path fill="rgb(56,114,127)" stroke="rgb(56,114,127)" stroke-width="1" opacity="0.5411764705882353" d="M 104.5 462 L 105.5 464 L 104.5 462 Z " /><path fill="rgb(56,114,127)" stroke="rgb(56,114,127)" stroke-width="1" opacity="0.5411764705882353" d="M 407.5 462 L 406.5 464 L 407.5 462 Z " /><path fill="rgb(56,114,127)" stroke="rgb(56,114,127)" stroke-width="1" opacity="0.5411764705882353" d="M 108.5 465 L 109.5 467 L 108.5 465 Z " /><path fill="rgb(56,114,127)" stroke="rgb(56,114,127)" stroke-width="1" opacity="0.5411764705882353" d="M 403.5 465 L 402.5 467 L 403.5 465 Z " /><path fill="rgb(56,114,127)" stroke="rgb(56,114,127)" stroke-width="1" opacity="0.5411764705882353" d="M 114.5 469 L 115.5 471 L 114.5 469 Z " /><path fill="rgb(56,114,127)" stroke="rgb(56,114,127)" stroke-width="1" opacity="0.5411764705882353" d="M 397.5 469 L 396.5 471 L 397.5 469 Z " /><path fill="rgb(56,114,127)" stroke="rgb(56,114,127)" stroke-width="1" opacity="0.5411764705882353" d="M 117.5 471 L 118.5 473 L 117.5 471 Z " /><path fill="rgb(56,114,127)" stroke="rgb(56,114,127)" stroke-width="1" opacity="0.5411764705882353" d="M 394.5 471 L 393.5 473 L 394.5 471 Z " /><path fill="rgb(56,114,127)" stroke="rgb(56,114,127)" stroke-width="1" opacity="0.5411764705882353" d="M 120.5 473 L 124 475.5 L 122.5 475 L 120.5 473 Z " /><path fill="rgb(56,114,127)" stroke="rgb(56,114,127)" stroke-width="1" opacity="0.5411764705882353" d="M 391.5 473 L 390.5 475 L 388.5 476 L 389.5 474 L 391.5 473 Z " /><path fill="rgb(56,114,127)" stroke="rgb(56,114,127)" stroke-width="1" opacity="0.5411764705882353" d="M 132.5 480 L 142 485.5 L 140.5 485 L 133.5 482 L 132.5 480 Z " /><path fill="rgb(56,114,127)" stroke="rgb(56,114,127)" stroke-width="1" opacity="0.5411764705882353" d="M 379.5 480 L 378.5 482 L 370.5 486 L 371.5 484 L 379.5 480 Z " /><path fill="rgb(56,114,127)" stroke="rgb(56,114,127)" stroke-width="1" opacity="0.5411764705882353" d="M 205.5 507 L 208 507.5 L 205.5 508 L 205.5 507 Z " /><path fill="rgb(56,114,127)" stroke="rgb(56,114,127)" stroke-width="1" opacity="0.5411764705882353" d="M 304.5 507 L 307 507.5 L 304.5 508 L 304.5 507 Z " /><path fill="rgb(56,114,127)" stroke="rgb(56,114,127)" stroke-width="1" opacity="0.5411764705882353" d="M 216.5 509 L 220 509.5 L 216.5 510 L 216.5 509 Z " /><path fill="rgb(56,114,127)" stroke="rgb(56,114,127)" stroke-width="1" opacity="0.5411764705882353" d="M 292.5 509 L 296 509.5 L 292.5 510 L 292.5 509 Z " /><path fill="rgb(56,114,127)" stroke="rgb(56,114,127)" stroke-width="1" opacity="0.5411764705882353" d="M 224.5 510 L 227 510.5 L 224.5 511 L 224.5 510 Z " /><path fill="rgb(56,114,127)" stroke="rgb(56,114,127)" stroke-width="1" opacity="0.5411764705882353" d="M 285.5 510 L 288 510.5 L 285.5 511 L 285.5 510 Z " /><path fill="rgb(56,114,127)" stroke="rgb(56,114,127)" stroke-width="1" opacity="0.5411764705882353" d="M 234.5 511 L 238 511.5 L 234.5 512 L 234.5 511 Z " /><path fill="rgb(56,114,127)" stroke="rgb(56,114,127)" stroke-width="1" opacity="0.5411764705882353" d="M 274.5 511 L 278 511.5 L 274.5 512 L 274.5 511 Z " /><path fill="rgb(0,0,0)" stroke="rgb(0,0,0)" stroke-width="1" opacity="0" d="M 0 0 L 234 0.5 L 216.5 2 L 181.5 10 Q 155.5 18 133.5 30 Q 92.6 52.6 63 86.5 Q 36.1 116.6 19 156.5 L 6 196.5 L 2 216.5 L 0.5 234 L 0 0 Z " /><path fill="rgb(0,0,0)" stroke="rgb(0,0,0)" stroke-width="1" opacity="0" d="M 278.5 0 L 512 0 L 512 233.5 L 511 233.5 L 510 216.5 L 502 181.5 Q 494 155.5 482 133.5 Q 459.4 92.6 425.5 63 Q 395.4 36.1 355.5 19 L 323.5 8 L 295.5 2 L 278.5 1 L 278.5 0 Z " /><path fill="rgb(0,0,0)" stroke="rgb(0,0,0)" stroke-width="1" opacity="0" d="M 0.5 278 L 2 295.5 L 10 330.5 Q 18 356.5 30 378.5 Q 52.6 419.4 86.5 449 Q 116.6 475.9 156.5 493 L 196.5 506 L 216.5 510 L 233 511.5 L 0 512 L 0.5 278 Z " /><path fill="rgb(0,0,0)" stroke="rgb(0,0,0)" stroke-width="1" opacity="0" d="M 511.5 278 L 512 512 L 279 511.5 L 301.5 509 L 330.5 502 L 355.5 493 L 378.5 482 Q 419.4 459.4 449 425.5 Q 475.9 395.4 493 355.5 L 506 315.5 L 510 295.5 L 511.5 278 Z " /><path fill="rgb(51,113,127)" stroke="rgb(51,113,127)" stroke-width="1" opacity="0.996078431372549" d="M 247.5 0 L 265 0.5 L 247.5 1 L 247.5 0 Z " /><path fill="rgb(51,113,127)" stroke="rgb(51,113,127)" stroke-width="1" opacity="0.996078431372549" d="M 231.5 1 L 234 1.5 L 231.5 2 L 231.5 1 Z " /><path fill="rgb(51,113,127)" stroke="rgb(51,113,127)" stroke-width="1" opacity="0.996078431372549" d="M 278.5 1 L 281 1.5 L 278.5 2 L 278.5 1 Z " /><path fill="rgb(51,113,127)" stroke="rgb(51,113,127)" stroke-width="1" opacity="0.996078431372549" d="M 287.5 2 L 290 2.5 L 287.5 3 L 287.5 2 Z " /><path fill="rgb(51,113,127)" stroke="rgb(51,113,127)" stroke-width="1" opacity="0.996078431372549" d="M 121.5 38 L 120.5 40 L 121.5 38 Z " /><path fill="rgb(51,113,127)" stroke="rgb(51,113,127)" stroke-width="1" opacity="0.996078431372549" d="M 390.5 38 L 391.5 40 L 390.5 38 Z " /><path fill="rgb(51,113,127)" stroke="rgb(51,113,127)" stroke-width="1" opacity="0.996078431372549" d="M 118.5 40 L 117.5 42 L 118.5 40 Z " /><path fill="rgb(51,113,127)" stroke="rgb(51,113,127)" stroke-width="1" opacity="0.996078431372549" d="M 393.5 40 L 394.5 42 L 393.5 40 Z " /><path fill="rgb(51,113,127)" stroke="rgb(51,113,127)" stroke-width="1" opacity="0.996078431372549" d="M 109.5 46 L 108.5 48 L 109.5 46 Z " /><path fill="rgb(51,113,127)" stroke="rgb(51,113,127)" stroke-width="1" opacity="0.996078431372549" d="M 402.5 46 L 403.5 48 L 402.5 46 Z " /><path fill="rgb(51,113,127)" stroke="rgb(51,113,127)" stroke-width="1" opacity="0.996078431372549" d="M 102.5 51 L 100.5 54 L 102.5 51 Z " /><path fill="rgb(51,113,127)" stroke="rgb(51,113,127)" stroke-width="1" opacity="0.996078431372549" d="M 409.5 51 L 411.5 54 L 409.5 51 Z " /><path fill="rgb(51,113,127)" stroke="rgb(51,113,127)" stroke-width="1" opacity="0.996078431372549" d="M 97.5 55 L 96.5 57 L 97.5 55 Z " /><path fill="rgb(51,113,127)" stroke="rgb(51,113,127)" stroke-width="1" opacity="0.996078431372549" d="M 414.5 55 L 415.5 57 L 414.5 55 Z " /><path fill="rgb(51,113,127)" stroke="rgb(51,113,127)" stroke-width="1" opacity="0.996078431372549" d="M 93.5 58 L 90.5 62 L 93.5 58 Z " /><path fill="rgb(51,113,127)" stroke="rgb(51,113,127)" stroke-width="1" opacity="0.996078431372549" d="M 418.5 58 L 421.5 62 L 418.5 58 Z " /><path fill="rgb(51,113,127)" stroke="rgb(51,113,127)" stroke-width="1" opacity="0.996078431372549" d="M 245.5 63 L 255 63.5 L 245.5 64 L 245.5 63 Z " /><path fill="rgb(51,113,127)" stroke="rgb(51,113,127)" stroke-width="1" opacity="0.996078431372549" d="M 257.5 63 L 267 63.5 L 257.5 64 L 257.5 63 Z " /><path fill="rgb(51,113,127)" stroke="rgb(51,113,127)" stroke-width="1" opacity="0.996078431372549" d="M 235.5 64 L 238 64.5 L 235.5 65 L 235.5 64 Z " /><path fill="rgb(51,113,127)" stroke="rgb(51,113,127)" stroke-width="1" opacity="0.996078431372549" d="M 274.5 64 L 277 64.5 L 274.5 65 L 274.5 64 Z " /><path fill="rgb(51,113,127)" stroke="rgb(51,113,127)" stroke-width="1" opacity="0.996078431372549" d="M 85.5 65 L 78.5 73 L 85.5 65 Z " /><path fill="rgb(51,113,127)" stroke="rgb(51,113,127)" stroke-width="1" opacity="0.996078431372549" d="M 426.5 65 L 433.5 73 L 426.5 65 Z " /><path fill="rgb(51,113,127)" stroke="rgb(51,113,127)" stroke-width="1" opacity="0.996078431372549" d="M 209.5 72 L 208.5 74 L 209.5 72 Z " /><path fill="rgb(51,113,127)" stroke="rgb(51,113,127)" stroke-width="1" opacity="0.996078431372549" d="M 302.5 72 L 303.5 74 L 302.5 72 Z " /><path fill="rgb(51,113,127)" stroke="rgb(51,113,127)" stroke-width="1" opacity="0.996078431372549" d="M 201.5 77 L 200.5 79 L 201.5 77 Z " /><path fill="rgb(51,113,127)" stroke="rgb(51,113,127)" stroke-width="1" opacity="0.996078431372549" d="M 310.5 77 L 311.5 79 L 310.5 77 Z " /><path fill="rgb(51,113,127)" stroke="rgb(51,113,127)" stroke-width="1" opacity="0.996078431372549" d="M 72.5 78 L 65.5 86 L 72.5 78 Z " /><path fill="rgb(51,113,127)" stroke="rgb(51,113,127)" stroke-width="1" opacity="0.996078431372549" d="M 439.5 78 L 446.5 86 L 439.5 78 Z " /><path fill="rgb(51,113,127)" stroke="rgb(51,113,127)" stroke-width="1" opacity="0.996078431372549" d="M 198.5 79 L 194.5 84 L 198.5 79 Z " /><path fill="rgb(51,113,127)" stroke="rgb(51,113,127)" stroke-width="1" opacity="0.996078431372549" d="M 313.5 79 L 317.5 84 L 313.5 79 Z " /><path fill="rgb(51,113,127)" stroke="rgb(51,113,127)" stroke-width="1" opacity="0.996078431372549" d="M 190.5 87 L 187.5 91 L 190.5 87 Z " /><path fill="rgb(51,113,127)" stroke="rgb(51,113,127)" stroke-width="1" opacity="0.996078431372549" d="M 321.5 87 L 324.5 91 L 321.5 87 Z " /><path fill="rgb(51,113,127)" stroke="rgb(51,113,127)" stroke-width="1" opacity="0.996078431372549" d="M 61.5 90 L 58.5 94 L 61.5 90 Z " /><path fill="rgb(51,113,127)" stroke="rgb(51,113,127)" stroke-width="1" opacity="0.996078431372549" d="M 450.5 90 L 453.5 94 L 450.5 90 Z " /><path fill="rgb(51,113,127)" stroke="rgb(51,113,127)" stroke-width="1" opacity="0.996078431372549" d="M 185.5 93 L 184.5 95 L 185.5 93 Z " /><path fill="rgb(51,113,127)" stroke="rgb(51,113,127)" stroke-width="1" opacity="0.996078431372549" d="M 326.5 93 L 327.5 95 L 326.5 93 Z " /><path fill="rgb(51,113,127)" stroke="rgb(51,113,127)" stroke-width="1" opacity="0.996078431372549" d="M 56.5 96 L 55.5 98 L 56.5 96 Z " /><path fill="rgb(51,113,127)" stroke="rgb(51,113,127)" stroke-width="1" opacity="0.996078431372549" d="M 183.5 96 L 182.5 98 L 183.5 96 Z " /><path fill="rgb(51,113,127)" stroke="rgb(51,113,127)" stroke-width="1" opacity="0.996078431372549" d="M 328.5 96 L 329.5 98 L 328.5 96 Z " /><path fill="rgb(51,113,127)" stroke="rgb(51,113,127)" stroke-width="1" opacity="0.996078431372549" d="M 455.5 96 L 456.5 98 L 455.5 96 Z " /><path fill="rgb(51,113,127)" stroke="rgb(51,113,127)" stroke-width="1" opacity="0.996078431372549" d="M 53.5 100 L 51.5 103 L 53.5 100 Z " /><path fill="rgb(51,113,127)" stroke="rgb(51,113,127)" stroke-width="1" opacity="0.996078431372549" d="M 458.5 100 L 460.5 103 L 458.5 100 Z " /><path fill="rgb(51,113,127)" stroke="rgb(51,113,127)" stroke-width="1" opacity="0.996078431372549" d="M 47.5 108 L 46.5 110 L 47.5 108 Z " /><path fill="rgb(51,113,127)" stroke="rgb(51,113,127)" stroke-width="1" opacity="0.996078431372549" d="M 464.5 108 L 465.5 110 L 464.5 108 Z " /><path fill="rgb(51,113,127)" stroke="rgb(51,113,127)" stroke-width="1" opacity="0.996078431372549" d="M 41.5 117 L 40.5 119 L 41.5 117 Z " /><path fill="rgb(51,113,127)" stroke="rgb(51,113,127)" stroke-width="1" opacity="0.996078431372549" d="M 470.5 117 L 471.5 119 L 470.5 117 Z " /><path fill="rgb(51,113,127)" stroke="rgb(51,113,127)" stroke-width="1" opacity="0.996078431372549" d="M 39.5 120 L 38.5 122 L 39.5 120 Z " /><path fill="rgb(51,113,127)" stroke="rgb(51,113,127)" stroke-width="1" opacity="0.996078431372549" d="M 472.5 120 L 473.5 122 L 472.5 120 Z " /><path fill="rgb(51,113,127)" stroke="rgb(51,113,127)" stroke-width="1" opacity="0.996078431372549" d="M 166.5 147 L 167 149.5 L 166 149.5 L 166.5 147 Z " /><path fill="rgb(51,113,127)" stroke="rgb(51,113,127)" stroke-width="1" opacity="0.996078431372549" d="M 345.5 147 L 346 149.5 L 345 149.5 L 345.5 147 Z " /><path fill="rgb(51,113,127)" stroke="rgb(51,113,127)" stroke-width="1" opacity="0.996078431372549" d="M 165.5 157 L 166 160.5 L 165 160.5 L 165.5 157 Z " /><path fill="rgb(51,113,127)" stroke="rgb(51,113,127)" stroke-width="1" opacity="0.996078431372549" d="M 346.5 157 L 347 160.5 L 346 160.5 L 346.5 157 Z " /><path fill="rgb(51,113,127)" stroke="rgb(51,113,127)" stroke-width="1" opacity="0.996078431372549" d="M 341.5 183 L 340.5 185 L 341.5 183 Z " /><path fill="rgb(51,113,127)" stroke="rgb(51,113,127)" stroke-width="1" opacity="0.996078431372549" d="M 164.5 213 L 163.5 215 L 164.5 213 Z " /><path fill="rgb(51,113,127)" stroke="rgb(51,113,127)" stroke-width="1" opacity="0.996078431372549" d="M 161.5 218 L 160.5 220 L 161.5 218 Z " /><path fill="rgb(51,113,127)" stroke="rgb(51,113,127)" stroke-width="1" opacity="0.996078431372549" d="M 1.5 231 L 2 233.5 L 1 233.5 L 1.5 231 Z " /><path fill="rgb(51,113,127)" stroke="rgb(51,113,127)" stroke-width="1" opacity="0.996078431372549" d="M 510.5 231 L 511 233.5 L 510 233.5 L 510.5 231 Z " /><path fill="rgb(51,113,127)" stroke="rgb(51,113,127)" stroke-width="1" opacity="0.996078431372549" d="M 0.5 247 L 1 264.5 L 0 264.5 L 0.5 247 Z " /><path fill="rgb(51,113,127)" stroke="rgb(51,113,127)" stroke-width="1" opacity="0.996078431372549" d="M 511.5 247 L 512 264.5 L 511 264.5 L 511.5 247 Z " /><path fill="rgb(51,113,127)" stroke="rgb(51,113,127)" stroke-width="1" opacity="0.996078431372549" d="M 145.5 259 L 146 261.5 L 145 261.5 L 145.5 259 Z " /><path fill="rgb(51,113,127)" stroke="rgb(51,113,127)" stroke-width="1" opacity="0.996078431372549" d="M 144.5 265 L 145 269.5 L 144 269.5 L 144.5 265 Z " /><path fill="rgb(51,113,127)" stroke="rgb(51,113,127)" stroke-width="1" opacity="0.996078431372549" d="M 1.5 278 L 2 280.5 L 1 280.5 L 1.5 278 Z " /><path fill="rgb(51,113,127)" stroke="rgb(51,113,127)" stroke-width="1" opacity="0.996078431372549" d="M 510.5 278 L 511 280.5 L 510 280.5 L 510.5 278 Z " /><path fill="rgb(51,113,127)" stroke="rgb(51,113,127)" stroke-width="1" opacity="0.996078431372549" d="M 144.5 283 L 145 285.5 L 144 285.5 L 144.5 283 Z " /><path fill="rgb(51,113,127)" stroke="rgb(51,113,127)" stroke-width="1" opacity="0.996078431372549" d="M 2.5 287 L 3 289.5 L 2 289.5 L 2.5 287 Z " /><path fill="rgb(51,113,127)" stroke="rgb(51,113,127)" stroke-width="1" opacity="0.996078431372549" d="M 509.5 287 L 510 289.5 L 509 289.5 L 509.5 287 Z " /><path fill="rgb(51,113,127)" stroke="rgb(51,113,127)" stroke-width="1" opacity="0.996078431372549" d="M 219.5 304 L 220 306.5 L 219 306.5 L 219.5 304 Z " /><path fill="rgb(51,113,127)" stroke="rgb(51,113,127)" stroke-width="1" opacity="0.996078431372549" d="M 292.5 304 L 293 306.5 L 292 306.5 L 292.5 304 Z " /><path fill="rgb(51,113,127)" stroke="rgb(51,113,127)" stroke-width="1" opacity="0.996078431372549" d="M 214.5 317 L 215 320.5 L 214 320.5 L 214.5 317 Z " /><path fill="rgb(51,113,127)" stroke="rgb(51,113,127)" stroke-width="1" opacity="0.996078431372549" d="M 221.5 321 L 222 326.5 L 221 326.5 L 221.5 321 Z " /><path fill="rgb(51,113,127)" stroke="rgb(51,113,127)" stroke-width="1" opacity="0.996078431372549" d="M 290.5 321 L 291 326.5 L 290 326.5 L 290.5 321 Z " /><path fill="rgb(51,113,127)" stroke="rgb(51,113,127)" stroke-width="1" opacity="0.996078431372549" d="M 220.5 333 L 221 335.5 L 220 335.5 L 220.5 333 Z " /><path fill="rgb(51,113,127)" stroke="rgb(51,113,127)" stroke-width="1" opacity="0.996078431372549" d="M 291.5 333 L 292 335.5 L 291 335.5 L 291.5 333 Z " /><path fill="rgb(51,113,127)" stroke="rgb(51,113,127)" stroke-width="1" opacity="0.996078431372549" d="M 165.5 340 L 166.5 342 L 165.5 340 Z " /><path fill="rgb(51,113,127)" stroke="rgb(51,113,127)" stroke-width="1" opacity="0.996078431372549" d="M 167.5 343 L 168.5 345 L 167.5 343 Z " /><path fill="rgb(51,113,127)" stroke="rgb(51,113,127)" stroke-width="1" opacity="0.996078431372549" d="M 297.5 346 L 301 346.5 L 297.5 347 L 297.5 346 Z " /><path fill="rgb(51,113,127)" stroke="rgb(51,113,127)" stroke-width="1" opacity="0.996078431372549" d="M 38.5 390 L 39.5 392 L 38.5 390 Z " /><path fill="rgb(51,113,127)" stroke="rgb(51,113,127)" stroke-width="1" opacity="0.996078431372549" d="M 473.5 390 L 472.5 392 L 473.5 390 Z " /><path fill="rgb(51,113,127)" stroke="rgb(51,113,127)" stroke-width="1" opacity="0.996078431372549" d="M 40.5 393 L 41.5 395 L 40.5 393 Z " /><path fill="rgb(51,113,127)" stroke="rgb(51,113,127)" stroke-width="1" opacity="0.996078431372549" d="M 471.5 393 L 470.5 395 L 471.5 393 Z " /><path fill="rgb(51,113,127)" stroke="rgb(51,113,127)" stroke-width="1" opacity="0.996078431372549" d="M 46.5 402 L 47.5 404 L 46.5 402 Z " /><path fill="rgb(51,113,127)" stroke="rgb(51,113,127)" stroke-width="1" opacity="0.996078431372549" d="M 465.5 402 L 464.5 404 L 465.5 402 Z " /><path fill="rgb(51,113,127)" stroke="rgb(51,113,127)" stroke-width="1" opacity="0.996078431372549" d="M 51.5 409 L 53.5 412 L 51.5 409 Z " /><path fill="rgb(51,113,127)" stroke="rgb(51,113,127)" stroke-width="1" opacity="0.996078431372549" d="M 460.5 409 L 458.5 412 L 460.5 409 Z " /><path fill="rgb(51,113,127)" stroke="rgb(51,113,127)" stroke-width="1" opacity="0.996078431372549" d="M 55.5 414 L 56.5 416 L 55.5 414 Z " /><path fill="rgb(51,113,127)" stroke="rgb(51,113,127)" stroke-width="1" opacity="0.996078431372549" d="M 456.5 414 L 455.5 416 L 456.5 414 Z " /><path fill="rgb(51,113,127)" stroke="rgb(51,113,127)" stroke-width="1" opacity="0.996078431372549" d="M 58.5 418 L 61.5 422 L 58.5 418 Z " /><path fill="rgb(51,113,127)" stroke="rgb(51,113,127)" stroke-width="1" opacity="0.996078431372549" d="M 453.5 418 L 450.5 422 L 453.5 418 Z " /><path fill="rgb(51,113,127)" stroke="rgb(51,113,127)" stroke-width="1" opacity="0.996078431372549" d="M 65.5 426 L 72.5 434 L 65.5 426 Z " /><path fill="rgb(51,113,127)" stroke="rgb(51,113,127)" stroke-width="1" opacity="0.996078431372549" d="M 446.5 426 L 439.5 434 L 446.5 426 Z " /><path fill="rgb(51,113,127)" stroke="rgb(51,113,127)" stroke-width="1" opacity="0.996078431372549" d="M 78.5 439 L 85.5 447 L 78.5 439 Z " /><path fill="rgb(51,113,127)" stroke="rgb(51,113,127)" stroke-width="1" opacity="0.996078431372549" d="M 433.5 439 L 426.5 447 L 433.5 439 Z " /><path fill="rgb(51,113,127)" stroke="rgb(51,113,127)" stroke-width="1" opacity="0.996078431372549" d="M 90.5 450 L 93.5 454 L 90.5 450 Z " /><path fill="rgb(51,113,127)" stroke="rgb(51,113,127)" stroke-width="1" opacity="0.996078431372549" d="M 421.5 450 L 418.5 454 L 421.5 450 Z " /><path fill="rgb(51,113,127)" stroke="rgb(51,113,127)" stroke-width="1" opacity="0.996078431372549" d="M 213.5 508 L 216 508.5 L 213.5 509 L 213.5 508 Z " /><path fill="rgb(51,113,127)" stroke="rgb(51,113,127)" stroke-width="1" opacity="0.996078431372549" d="M 296.5 508 L 299 508.5 L 296.5 509 L 296.5 508 Z " /><path fill="rgb(51,113,127)" stroke="rgb(51,113,127)" stroke-width="1" opacity="0.996078431372549" d="M 220.5 509 L 223 509.5 L 220.5 510 L 220.5 509 Z " /><path fill="rgb(51,113,127)" stroke="rgb(51,113,127)" stroke-width="1" opacity="0.996078431372549" d="M 289.5 509 L 292 509.5 L 289.5 510 L 289.5 509 Z " /><path fill="rgb(51,113,127)" stroke="rgb(51,113,127)" stroke-width="1" opacity="0.996078431372549" d="M 227.5 510 L 232 510.5 L 227.5 511 L 227.5 510 Z " /><path fill="rgb(51,113,127)" stroke="rgb(51,113,127)" stroke-width="1" opacity="0.996078431372549" d="M 280.5 510 L 285 510.5 L 280.5 511 L 280.5 510 Z " /><path fill="rgb(51,113,127)" stroke="rgb(51,113,127)" stroke-width="1" opacity="0.996078431372549" d="M 238.5 511 L 249 511.5 L 238.5 512 L 238.5 511 Z " /><path fill="rgb(51,113,127)" stroke="rgb(51,113,127)" stroke-width="1" opacity="0.996078431372549" d="M 263.5 511 L 274 511.5 L 263.5 512 L 263.5 511 Z " /><path fill="rgb(51,113,128)" stroke="rgb(51,113,128)" stroke-width="1" opacity="1" d="M 234.5 1 L 277.5 1 L 278.5 2 L 294.5 3 L 322.5 9 L 344.5 16 Q 400.8 37.7 439 77.5 Q 475.8 114.2 496 167.5 L 503 189.5 L 509 217.5 L 510 233.5 L 511 234.5 L 511 277.5 L 510 278.5 L 508 300.5 L 503 322.5 L 489 361.5 Q 468.2 406.7 434.5 439 L 418.5 453 L 417 450.5 L 415 431.5 L 408 395.5 Q 403.6 382.9 393.5 376 L 368.5 362 L 354.5 357 L 320.5 349 L 295 346 L 291 332.5 L 291 313.5 L 294 298.5 L 295.5 297 L 302 291.5 Q 321.6 271.4 330 241 L 335.5 240 L 339 237.5 L 345 223.5 L 347 213.5 L 347 206.5 L 348 205.5 L 348 194.5 Q 347.1 187.9 342.5 185 L 341 184.5 L 348 181 L 347 178.5 L 346 147.5 L 339 116.5 Q 331 93 313.5 79 Q 300.7 68.8 281.5 65 L 267.5 64 L 266.5 63 L 245.5 63 L 244.5 64 L 230.5 65 L 211.5 71 Q 196.6 78.1 187 90.5 L 179 102.5 L 171 122.5 L 166 147.5 L 165 178.5 L 164 181 L 172 184.5 L 167 187.5 Q 162.8 193.3 164 204.5 Q 166.8 206.2 165 212.5 Q 152.9 228.4 147 250.5 L 144 265.5 L 144 285.5 L 147 302.5 L 152 316.5 L 173 353 Q 150.8 357.6 132.5 367 Q 118.3 373.8 109 385.5 L 105 392.5 L 102 403.5 L 96 443.5 L 95 444.5 L 95 450.5 L 93.5 453 L 73 434.5 Q 36.2 397.8 16 344.5 L 9 322.5 L 3 294.5 L 2 278.5 L 1 277.5 L 1 234.5 L 2 233.5 L 4 211.5 L 9 189.5 L 23 150.5 Q 43.8 105.3 77.5 73 Q 108.4 42.4 150.5 23 L 189.5 9 L 211.5 4 L 233.5 2 L 234.5 1 Z " /><path fill="rgb(51,113,128)" stroke="rgb(51,113,128)" stroke-width="1" opacity="1" d="M 217.5 298 L 221 313.5 L 221 332.5 L 217.5 344 L 215 332.5 L 215 307.5 L 217.5 298 Z " /><path fill="rgb(223,158,119)" stroke="rgb(223,158,119)" stroke-width="1" opacity="0.996078431372549" d="M 255.5 126 L 257 128.5 L 255 127.5 L 255.5 126 Z " /><path fill="rgb(223,158,119)" stroke="rgb(223,158,119)" stroke-width="1" opacity="0.996078431372549" d="M 251.5 136 L 249.5 139 L 251.5 136 Z " /><path fill="rgb(223,158,119)" stroke="rgb(223,158,119)" stroke-width="1" opacity="0.996078431372549" d="M 260.5 136 L 261.5 138 L 260.5 136 Z " /><path fill="rgb(223,158,119)" stroke="rgb(223,158,119)" stroke-width="1" opacity="0.996078431372549" d="M 263.5 140 L 268.5 146 L 263.5 140 Z " /><path fill="rgb(223,158,119)" stroke="rgb(223,158,119)" stroke-width="1" opacity="0.996078431372549" d="M 247.5 141 L 246.5 143 L 247.5 141 Z " /><path fill="rgb(223,158,119)" stroke="rgb(223,158,119)" stroke-width="1" opacity="0.996078431372549" d="M 240.5 147 L 239.5 149 L 240.5 147 Z " /><path fill="rgb(223,158,119)" stroke="rgb(223,158,119)" stroke-width="1" opacity="0.996078431372549" d="M 271.5 147 L 272.5 149 L 271.5 147 Z " /><path fill="rgb(223,158,119)" stroke="rgb(223,158,119)" stroke-width="1" opacity="0.996078431372549" d="M 237.5 149 L 235.5 152 L 237.5 149 Z " /><path fill="rgb(223,158,119)" stroke="rgb(223,158,119)" stroke-width="1" opacity="0.996078431372549" d="M 275.5 150 L 276.5 152 L 275.5 150 Z " /><path fill="rgb(223,158,119)" stroke="rgb(223,158,119)" stroke-width="1" opacity="0.996078431372549" d="M 233.5 152 L 232.5 154 L 233.5 152 Z " /><path fill="rgb(223,158,119)" stroke="rgb(223,158,119)" stroke-width="1" opacity="0.996078431372549" d="M 278.5 152 L 279.5 154 L 278.5 152 Z " /><path fill="rgb(223,158,119)" stroke="rgb(223,158,119)" stroke-width="1" opacity="0.996078431372549" d="M 228.5 155 L 227.5 157 L 228.5 155 Z " /><path fill="rgb(223,158,119)" stroke="rgb(223,158,119)" stroke-width="1" opacity="0.996078431372549" d="M 180.5 185 L 181 192.5 L 178.5 194 L 177.5 192 L 180 193 L 180.5 185 Z " /><path fill="rgb(223,158,119)" stroke="rgb(223,158,119)" stroke-width="1" opacity="0.996078431372549" d="M 331.5 185 L 332 193 L 334.5 192 L 333.5 194 L 331 192.5 L 331.5 185 Z " /><path fill="rgb(223,158,119)" stroke="rgb(223,158,119)" stroke-width="1" opacity="0.996078431372549" d="M 342.5 185 L 345.5 189 L 342.5 185 Z " /><path fill="rgb(223,158,119)" stroke="rgb(223,158,119)" stroke-width="1" opacity="0.996078431372549" d="M 168.5 186 L 167.5 188 L 168.5 186 Z " /><path fill="rgb(223,158,119)" stroke="rgb(223,158,119)" stroke-width="1" opacity="0.996078431372549" d="M 347.5 194 L 348 205.5 L 347 205.5 L 347.5 194 Z " /><path fill="rgb(223,158,119)" stroke="rgb(223,158,119)" stroke-width="1" opacity="0.996078431372549" d="M 164.5 195 L 165 204.5 L 164 204.5 L 164.5 195 Z " /><path fill="rgb(223,158,119)" stroke="rgb(223,158,119)" stroke-width="1" opacity="0.996078431372549" d="M 165.5 209 L 166 212.5 L 165 212.5 L 165.5 209 Z " /><path fill="rgb(223,158,119)" stroke="rgb(223,158,119)" stroke-width="1" opacity="0.996078431372549" d="M 346.5 210 L 347 213.5 L 346 213.5 L 346.5 210 Z " /><path fill="rgb(223,158,119)" stroke="rgb(223,158,119)" stroke-width="1" opacity="0.996078431372549" d="M 171.5 234 L 172.5 236 L 171.5 234 Z " /><path fill="rgb(223,158,119)" stroke="rgb(223,158,119)" stroke-width="1" opacity="0.996078431372549" d="M 173.5 237 L 174.5 239 L 173.5 237 Z " /><path fill="rgb(223,158,119)" stroke="rgb(223,158,119)" stroke-width="1" opacity="0.996078431372549" d="M 338.5 237 L 337.5 239 L 338.5 237 Z " /><path fill="rgb(223,158,119)" stroke="rgb(223,158,119)" stroke-width="1" opacity="0.996078431372549" d="M 243.5 266 L 250.5 266 L 257.5 268 Q 260.8 264.8 268.5 266 L 279 275.5 Q 280.1 278.8 277.5 278 L 272.5 282 L 262.5 286 L 249.5 286 L 233 278 Q 233.3 271.6 238.5 269 L 243.5 266 Z " /><path fill="rgb(223,158,119)" stroke="rgb(223,158,119)" stroke-width="1" opacity="0.996078431372549" d="M 193.5 268 L 194.5 270 L 193.5 268 Z " /><path fill="rgb(223,158,119)" stroke="rgb(223,158,119)" stroke-width="1" opacity="0.996078431372549" d="M 318.5 268 L 317.5 270 L 318.5 268 Z " /><path fill="rgb(223,158,119)" stroke="rgb(223,158,119)" stroke-width="1" opacity="0.996078431372549" d="M 196.5 273 L 197.5 275 L 196.5 273 Z " /><path fill="rgb(223,158,119)" stroke="rgb(223,158,119)" stroke-width="1" opacity="0.996078431372549" d="M 315.5 273 L 314.5 275 L 315.5 273 Z " /><path fill="rgb(223,158,119)" stroke="rgb(223,158,119)" stroke-width="1" opacity="0.996078431372549" d="M 198.5 276 L 199.5 278 L 198.5 276 Z " /><path fill="rgb(223,158,119)" stroke="rgb(223,158,119)" stroke-width="1" opacity="0.996078431372549" d="M 200.5 279 L 201.5 281 L 200.5 279 Z " /><path fill="rgb(223,158,119)" stroke="rgb(223,158,119)" stroke-width="1" opacity="0.996078431372549" d="M 311.5 279 L 310.5 281 L 311.5 279 Z " /><path fill="rgb(223,158,119)" stroke="rgb(223,158,119)" stroke-width="1" opacity="0.996078431372549" d="M 203.5 283 L 205.5 286 L 203.5 283 Z " /><path fill="rgb(223,158,119)" stroke="rgb(223,158,119)" stroke-width="1" opacity="0.996078431372549" d="M 308.5 283 L 307.5 285 L 308.5 283 Z " /><path fill="rgb(223,158,119)" stroke="rgb(223,158,119)" stroke-width="1" opacity="0.996078431372549" d="M 210.5 291 L 215.5 297 L 210.5 291 Z " /><path fill="rgb(223,158,119)" stroke="rgb(223,158,119)" stroke-width="1" opacity="0.996078431372549" d="M 301.5 291 L 296.5 297 L 301.5 291 Z " /><path fill="rgb(223,158,119)" stroke="rgb(223,158,119)" stroke-width="1" opacity="0.996078431372549" d="M 218.5 299 Q 226.9 307.1 238.5 312 L 247.5 315 L 258.5 316 Q 280.8 312.3 293.5 299 L 294 300.5 L 292 304.5 L 290 326.5 L 291 327.5 L 291 335.5 L 295 347.5 L 280 406 L 232.5 406 L 232 404.5 L 228 391.5 L 228 381.5 L 226 371.5 L 217 345.5 L 221 335.5 L 222 321.5 L 221 320.5 L 220 304.5 L 218.5 299 Z " /><path fill="rgb(243,179,130)" stroke="rgb(243,179,130)" stroke-width="1" opacity="0.996078431372549" d="M 255.5 128 Q 260 139 268.5 146 Q 283.5 158 302.5 166 L 332 177.5 L 331 192.5 L 333.5 194 L 339.5 185 L 341.5 185 L 346 189.5 L 347 192.5 L 347 209.5 L 342 231.5 L 336.5 239 L 330 240 Q 318.9 279.2 290.5 302 L 273.5 312 L 264.5 315 L 253.5 316 L 238.5 312 L 230.5 308 Q 215.9 299.6 206 286.5 Q 189.6 267.2 182 240 Q 175.3 241.1 173 236.5 L 169 228.5 L 166 215.5 L 165 192.5 L 170.5 185 Q 174.5 184.5 175 187.5 L 178.5 194 L 181 192.5 L 180 178.5 L 181 176 Q 206.4 169 227.5 157 L 248 141.5 Q 253.4 136.4 255.5 128 Z M 244 266 L 239 269 Q 233 272 233 278 L 250 286 L 263 286 L 273 282 L 278 278 Q 280 279 279 276 L 269 266 Q 261 265 258 268 L 251 266 L 244 266 Z " /><path fill="rgb(243,179,130)" stroke="rgb(243,179,130)" stroke-width="1" opacity="0.996078431372549" d="M 232.5 406 L 280 406.5 L 232.5 407 L 232.5 406 Z " /><path fill="rgb(96,47,15)" stroke="rgb(96,47,15)" stroke-width="1" opacity="1" d="M 241.5 64 Q 300.5 59.5 324 90.5 Q 334.7 103.8 340 122.5 L 345 145.5 L 347 181 Q 340.4 181.5 337 186.5 L 333.5 193 L 332 192.5 L 332 176.5 L 330.5 176 L 301.5 165 L 285.5 157 Q 272.3 150.3 263 139.5 L 255.5 126 Q 252.4 139.4 242.5 146 Q 228.4 157.4 210.5 165 L 180 176 L 180 192.5 L 178.5 193 L 172.5 184 L 165 181 L 167 145.5 L 172 122.5 Q 179.6 95.6 198.5 80 L 218.5 69 L 241.5 64 Z " /><path fill="rgb(96,47,15)" stroke="rgb(96,47,15)" stroke-width="1" opacity="1" d="M 165.5 213 Q 166.3 224.3 170 232.5 L 174.5 239 L 182 241 Q 186 257.3 194 270.5 Q 203 286 216 297.5 L 216 301.5 Q 212 312.5 214 329.5 L 218 350.5 L 226 371.5 L 228 392.5 Q 224.3 411.8 211.5 422 Q 198.3 433.8 177.5 438 L 178.5 436 L 186 429.5 Q 194.2 419.2 194 400.5 L 193 399.5 L 192 388.5 L 186 372.5 L 158 327.5 L 151 311.5 L 145 288.5 L 145 264.5 L 152 237.5 L 165.5 213 Z " /><path fill="rgb(221,223,214)" stroke="rgb(221,223,214)" stroke-width="1" opacity="0.996078431372549" d="M 338 353 L 340 353.5 L 338 354.5 L 338 353 Z " /><path fill="rgb(221,223,214)" stroke="rgb(221,223,214)" stroke-width="1" opacity="0.996078431372549" d="M 384.5 370 L 385.5 372 L 384.5 370 Z " /><path fill="rgb(221,223,214)" stroke="rgb(221,223,214)" stroke-width="1" opacity="0.996078431372549" d="M 118.5 376 L 116.5 379 L 118.5 376 Z " /><path fill="rgb(221,223,214)" stroke="rgb(221,223,214)" stroke-width="1" opacity="0.996078431372549" d="M 394.5 377 L 396.5 380 L 394.5 377 Z " /><path fill="rgb(221,223,214)" stroke="rgb(221,223,214)" stroke-width="1" opacity="0.996078431372549" d="M 398.5 381 L 402.5 386 L 398.5 381 Z " /><path fill="rgb(221,223,214)" stroke="rgb(221,223,214)" stroke-width="1" opacity="0.996078431372549" d="M 112.5 382 L 109.5 386 L 112.5 382 Z " /><path fill="rgb(221,223,214)" stroke="rgb(221,223,214)" stroke-width="1" opacity="0.996078431372549" d="M 108.5 387 L 107.5 389 L 108.5 387 Z " /><path fill="rgb(221,223,214)" stroke="rgb(221,223,214)" stroke-width="1" opacity="0.996078431372549" d="M 403.5 387 L 404.5 389 L 403.5 387 Z " /><path fill="rgb(221,223,214)" stroke="rgb(221,223,214)" stroke-width="1" opacity="0.996078431372549" d="M 101.5 408 L 102 410.5 L 101 410.5 L 101.5 408 Z " /><path fill="rgb(221,223,214)" stroke="rgb(221,223,214)" stroke-width="1" opacity="0.996078431372549" d="M 410.5 408 L 411 410.5 L 410 410.5 L 410.5 408 Z " /><path fill="rgb(221,223,214)" stroke="rgb(221,223,214)" stroke-width="1" opacity="0.996078431372549" d="M 99.5 419 L 100 421.5 L 99 421.5 L 99.5 419 Z " /><path fill="rgb(221,223,214)" stroke="rgb(221,223,214)" stroke-width="1" opacity="0.996078431372549" d="M 412.5 419 L 413 421.5 L 412 421.5 L 412.5 419 Z " /><path fill="rgb(221,223,214)" stroke="rgb(221,223,214)" stroke-width="1" opacity="0.996078431372549" d="M 98.5 425 L 99 428.5 L 98 428.5 L 98.5 425 Z " /><path fill="rgb(221,223,214)" stroke="rgb(221,223,214)" stroke-width="1" opacity="0.996078431372549" d="M 413.5 425 L 414 428.5 L 413 428.5 L 413.5 425 Z " /><path fill="rgb(221,223,214)" stroke="rgb(221,223,214)" stroke-width="1" opacity="0.996078431372549" d="M 97.5 432 L 98 434.5 L 97 434.5 L 97.5 432 Z " /><path fill="rgb(221,223,214)" stroke="rgb(221,223,214)" stroke-width="1" opacity="0.996078431372549" d="M 414.5 432 L 415 434.5 L 414 434.5 L 414.5 432 Z " /><path fill="rgb(221,223,214)" stroke="rgb(221,223,214)" stroke-width="1" opacity="0.996078431372549" d="M 96.5 438 L 97 441.5 L 96 441.5 L 96.5 438 Z " /><path fill="rgb(221,223,214)" stroke="rgb(221,223,214)" stroke-width="1" opacity="0.996078431372549" d="M 415.5 438 L 416 441.5 L 415 441.5 L 415.5 438 Z " /><path fill="rgb(221,223,214)" stroke="rgb(221,223,214)" stroke-width="1" opacity="0.996078431372549" d="M 95.5 445 L 96 447.5 L 95 447.5 L 95.5 445 Z " /><path fill="rgb(221,223,214)" stroke="rgb(221,223,214)" stroke-width="1" opacity="0.996078431372549" d="M 416.5 445 L 417 447.5 L 416 447.5 L 416.5 445 Z " /><path fill="rgb(221,223,214)" stroke="rgb(221,223,214)" stroke-width="1" opacity="0.996078431372549" d="M 94.5 451 L 96 455.5 L 94 454.5 L 94.5 451 Z " /><path fill="rgb(221,223,214)" stroke="rgb(221,223,214)" stroke-width="1" opacity="0.996078431372549" d="M 417.5 451 L 418 454.5 L 416 455.5 L 417.5 451 Z " /><path fill="rgb(221,223,214)" stroke="rgb(221,223,214)" stroke-width="1" opacity="0.996078431372549" d="M 97.5 456 L 99.5 459 L 97.5 456 Z " /><path fill="rgb(221,223,214)" stroke="rgb(221,223,214)" stroke-width="1" opacity="0.996078431372549" d="M 414.5 456 L 412.5 459 L 414.5 456 Z " /><path fill="rgb(221,223,214)" stroke="rgb(221,223,214)" stroke-width="1" opacity="0.996078431372549" d="M 101.5 459 L 103.5 462 L 101.5 459 Z " /><path fill="rgb(221,223,214)" stroke="rgb(221,223,214)" stroke-width="1" opacity="0.996078431372549" d="M 410.5 459 L 408.5 462 L 410.5 459 Z " /><path fill="rgb(221,223,214)" stroke="rgb(221,223,214)" stroke-width="1" opacity="0.996078431372549" d="M 105.5 462 L 107.5 465 L 105.5 462 Z " /><path fill="rgb(221,223,214)" stroke="rgb(221,223,214)" stroke-width="1" opacity="0.996078431372549" d="M 406.5 462 L 404.5 465 L 406.5 462 Z " /><path fill="rgb(221,223,214)" stroke="rgb(221,223,214)" stroke-width="1" opacity="0.996078431372549" d="M 109.5 465 L 111.5 468 L 109.5 465 Z " /><path fill="rgb(221,223,214)" stroke="rgb(221,223,214)" stroke-width="1" opacity="0.996078431372549" d="M 402.5 465 L 400.5 468 L 402.5 465 Z " /><path fill="rgb(221,223,214)" stroke="rgb(221,223,214)" stroke-width="1" opacity="0.996078431372549" d="M 115.5 469 L 116.5 471 L 115.5 469 Z " /><path fill="rgb(221,223,214)" stroke="rgb(221,223,214)" stroke-width="1" opacity="0.996078431372549" d="M 396.5 469 L 395.5 471 L 396.5 469 Z " /><path fill="rgb(221,223,214)" stroke="rgb(221,223,214)" stroke-width="1" opacity="0.996078431372549" d="M 118.5 471 L 119.5 473 L 118.5 471 Z " /><path fill="rgb(221,223,214)" stroke="rgb(221,223,214)" stroke-width="1" opacity="0.996078431372549" d="M 393.5 471 L 392.5 473 L 393.5 471 Z " /><path fill="rgb(221,223,214)" stroke="rgb(221,223,214)" stroke-width="1" opacity="0.996078431372549" d="M 123.5 474 L 124.5 476 L 123.5 474 Z " /><path fill="rgb(221,223,214)" stroke="rgb(221,223,214)" stroke-width="1" opacity="0.996078431372549" d="M 388.5 474 L 387.5 476 L 388.5 474 Z " /><path fill="rgb(221,223,214)" stroke="rgb(221,223,214)" stroke-width="1" opacity="0.996078431372549" d="M 126.5 476 L 127.5 478 L 126.5 476 Z " /><path fill="rgb(221,223,214)" stroke="rgb(221,223,214)" stroke-width="1" opacity="0.996078431372549" d="M 385.5 476 L 384.5 478 L 385.5 476 Z " /><path fill="rgb(221,223,214)" stroke="rgb(221,223,214)" stroke-width="1" opacity="0.996078431372549" d="M 143.5 485 L 146 486.5 L 144.5 487 L 143.5 485 Z " /><path fill="rgb(221,223,214)" stroke="rgb(221,223,214)" stroke-width="1" opacity="0.996078431372549" d="M 368.5 485 L 367.5 487 L 365.5 488 L 364.5 486 L 366.5 486 L 368.5 485 Z " /><path fill="rgb(221,223,214)" stroke="rgb(221,223,214)" stroke-width="1" opacity="0.996078431372549" d="M 255.5 498 L 256.5 500 L 255.5 498 Z " /><path fill="rgb(248,239,232)" stroke="rgb(248,239,232)" stroke-width="1" opacity="1" d="M 173.5 353 L 174 356.5 L 161 413.5 L 146.5 487 Q 117.5 474 95 454.5 L 99 422.5 L 104 397.5 Q 107.1 385.6 115.5 379 Q 127.1 369.1 142.5 363 L 173.5 353 Z " /><path fill="rgb(248,239,232)" stroke="rgb(248,239,232)" stroke-width="1" opacity="1" d="M 339 354 Q 374.5 361 398 380 L 405 389.5 L 408 397.5 L 413 422.5 L 417 454.5 Q 394.5 474 365.5 487 L 364 485.5 L 339 354 Z " /><path fill="rgb(248,239,232)" stroke="rgb(248,239,232)" stroke-width="1" opacity="1" d="M 233 407 L 278.5 407 L 279 410.5 L 256.5 499 L 255 497.5 L 233 407 Z " /></svg>